# xmcd
#
# Track frame offsets: 
#        150
#        28784
#        64540
#        92424
#        120648
#        150154
#        164043
#        197417
#        228601
#        259354
#
# Disc length: 4146 seconds
#
# Revision: 0
# Processed by: cddbd v1.5.2PL0 Copyright (c) Steve Scherf et al.
# Submitted via: ExactAudioCopy v1.0b4
#
DISCID=7b10300a
DTITLE=Mel Brown and The Homewreckers - Live At Pop The Gator 1991
DYEAR=2016
DGENRE=Blues
TTITLE0=Intro - Shawn's Shuffle
TTITLE1=I'm Gonna Move To The Outskirts Of Town
TTITLE2=Georgia On My Mind
TTITLE3=Get Out Of My Life Woman
TTITLE4=Blues On The Green
TTITLE5=Band Outro Jam
TTITLE6=Shake, Rattle and Roll
TTITLE7=Under Yonder Blues
TTITLE8=I Got My Mojo Workin'
TTITLE9=Hey Joe
EXTD=
EXTT0=
EXTT1=
EXTT2=
EXTT3=
EXTT4=
EXTT5=
EXTT6=
EXTT7=
EXTT8=
EXTT9=
PLAYORDER=
